<mxfile host="app.diagrams.net" modified="2023-11-06T19:52:21.411Z" agent="Mozilla/5.0 (X11; Ubuntu; Linux x86_64; rv:109.0) Gecko/20100101 Firefox/119.0" etag="DB2xuI3EDCtwDKk0-AAk" version="22.0.8" type="github" pages="4">
  <diagram name="detailed-straight" id="2a216829-ef6e-dabb-86c1-c78162f3ba2b">
    <mxGraphModel dx="2924" dy="1123" grid="1" gridSize="10" guides="1" tooltips="1" connect="1" arrows="1" fold="1" page="1" pageScale="1" pageWidth="850" pageHeight="1100" background="none" math="0" shadow="0">
      <root>
        <mxCell id="0" />
        <mxCell id="1" parent="0" />
        <mxCell id="nNxF-WLNx1MhoD0k2zpD-5" value="" style="points=[[0.145,0.145,0],[0.5,0,0],[0.855,0.145,0],[1,0.5,0],[0.855,0.855,0],[0.5,1,0],[0.145,0.855,0],[0,0.5,0]];shape=mxgraph.bpmn.event;html=1;verticalLabelPosition=bottom;labelBackgroundColor=#ffffff;verticalAlign=top;align=center;perimeter=ellipsePerimeter;outlineConnect=0;aspect=fixed;outline=standard;symbol=general;" parent="1" vertex="1">
          <mxGeometry x="-160" y="280" width="50" height="50" as="geometry" />
        </mxCell>
        <mxCell id="nNxF-WLNx1MhoD0k2zpD-6" value="Read input from a specified directory or file" style="points=[[0.25,0,0],[0.5,0,0],[0.75,0,0],[1,0.25,0],[1,0.5,0],[1,0.75,0],[0.75,1,0],[0.5,1,0],[0.25,1,0],[0,0.75,0],[0,0.5,0],[0,0.25,0]];shape=mxgraph.bpmn.task;whiteSpace=wrap;rectStyle=rounded;size=10;html=1;container=1;expand=0;collapsible=0;taskMarker=abstract;" parent="1" vertex="1">
          <mxGeometry x="-70" y="265" width="120" height="80" as="geometry" />
        </mxCell>
        <mxCell id="nNxF-WLNx1MhoD0k2zpD-7" value="Scan file(s) for URLs" style="points=[[0.25,0,0],[0.5,0,0],[0.75,0,0],[1,0.25,0],[1,0.5,0],[1,0.75,0],[0.75,1,0],[0.5,1,0],[0.25,1,0],[0,0.75,0],[0,0.5,0],[0,0.25,0]];shape=mxgraph.bpmn.task;whiteSpace=wrap;rectStyle=rounded;size=10;html=1;container=1;expand=0;collapsible=0;taskMarker=abstract;" parent="1" vertex="1">
          <mxGeometry x="100" y="265" width="120" height="80" as="geometry" />
        </mxCell>
        <mxCell id="nNxF-WLNx1MhoD0k2zpD-10" value="Quit the program" style="edgeStyle=orthogonalEdgeStyle;rounded=0;orthogonalLoop=1;jettySize=auto;html=1;entryX=0.5;entryY=1;entryDx=0;entryDy=0;entryPerimeter=0;" parent="1" source="nNxF-WLNx1MhoD0k2zpD-8" target="nNxF-WLNx1MhoD0k2zpD-16" edge="1">
          <mxGeometry x="-0.6239" y="15" relative="1" as="geometry">
            <mxPoint x="955" y="690" as="targetPoint" />
            <Array as="points">
              <mxPoint x="1220" y="305" />
              <mxPoint x="1220" y="500" />
              <mxPoint x="1620" y="500" />
            </Array>
            <mxPoint as="offset" />
          </mxGeometry>
        </mxCell>
        <mxCell id="nNxF-WLNx1MhoD0k2zpD-11" value="Display help" style="edgeStyle=orthogonalEdgeStyle;rounded=0;orthogonalLoop=1;jettySize=auto;html=1;exitX=1;exitY=0.5;exitDx=0;exitDy=0;exitPerimeter=0;entryX=0;entryY=0.5;entryDx=0;entryDy=0;entryPerimeter=0;" parent="1" source="nNxF-WLNx1MhoD0k2zpD-8" target="nNxF-WLNx1MhoD0k2zpD-15" edge="1">
          <mxGeometry relative="1" as="geometry">
            <mxPoint x="975" y="460" as="targetPoint" />
          </mxGeometry>
        </mxCell>
        <mxCell id="nNxF-WLNx1MhoD0k2zpD-12" value="Launch URLs in a browser" style="edgeStyle=orthogonalEdgeStyle;rounded=0;orthogonalLoop=1;jettySize=auto;html=1;exitX=1;exitY=0.5;exitDx=0;exitDy=0;exitPerimeter=0;entryX=0;entryY=0.5;entryDx=0;entryDy=0;entryPerimeter=0;" parent="1" source="nNxF-WLNx1MhoD0k2zpD-8" target="nNxF-WLNx1MhoD0k2zpD-9" edge="1">
          <mxGeometry x="-0.1667" y="-10" relative="1" as="geometry">
            <mxPoint x="1005" y="100" as="targetPoint" />
            <mxPoint as="offset" />
          </mxGeometry>
        </mxCell>
        <mxCell id="nNxF-WLNx1MhoD0k2zpD-13" value="Skip to the next URL" style="edgeStyle=orthogonalEdgeStyle;rounded=0;orthogonalLoop=1;jettySize=auto;html=1;exitX=0.5;exitY=0;exitDx=0;exitDy=0;exitPerimeter=0;entryX=0.5;entryY=1;entryDx=0;entryDy=0;entryPerimeter=0;" parent="1" source="nNxF-WLNx1MhoD0k2zpD-8" target="nNxF-WLNx1MhoD0k2zpD-14" edge="1">
          <mxGeometry relative="1" as="geometry">
            <mxPoint x="975" y="230" as="targetPoint" />
          </mxGeometry>
        </mxCell>
        <mxCell id="nNxF-WLNx1MhoD0k2zpD-8" value="" style="points=[[0.25,0.25,0],[0.5,0,0],[0.75,0.25,0],[1,0.5,0],[0.75,0.75,0],[0.5,1,0],[0.25,0.75,0],[0,0.5,0]];shape=mxgraph.bpmn.gateway2;html=1;verticalLabelPosition=bottom;labelBackgroundColor=#ffffff;verticalAlign=top;align=center;perimeter=rhombusPerimeter;outlineConnect=0;outline=none;symbol=none;" parent="1" vertex="1">
          <mxGeometry x="620" y="280" width="50" height="50" as="geometry" />
        </mxCell>
        <mxCell id="nNxF-WLNx1MhoD0k2zpD-9" value="Launch URLs" style="points=[[0.25,0,0],[0.5,0,0],[0.75,0,0],[1,0.25,0],[1,0.5,0],[1,0.75,0],[0.75,1,0],[0.5,1,0],[0.25,1,0],[0,0.75,0],[0,0.5,0],[0,0.25,0]];shape=mxgraph.bpmn.task;whiteSpace=wrap;rectStyle=rounded;size=10;html=1;container=1;expand=0;collapsible=0;taskMarker=abstract;" parent="1" vertex="1">
          <mxGeometry x="770" y="185" width="120" height="80" as="geometry" />
        </mxCell>
        <mxCell id="nNxF-WLNx1MhoD0k2zpD-14" value="&lt;meta charset=&quot;utf-8&quot;&gt;Skip to Next URL" style="points=[[0.25,0,0],[0.5,0,0],[0.75,0,0],[1,0.25,0],[1,0.5,0],[1,0.75,0],[0.75,1,0],[0.5,1,0],[0.25,1,0],[0,0.75,0],[0,0.5,0],[0,0.25,0]];shape=mxgraph.bpmn.task;whiteSpace=wrap;rectStyle=rounded;size=10;html=1;container=1;expand=0;collapsible=0;taskMarker=abstract;" parent="1" vertex="1">
          <mxGeometry x="585" y="140" width="120" height="80" as="geometry" />
        </mxCell>
        <mxCell id="nNxF-WLNx1MhoD0k2zpD-15" value="&lt;meta charset=&quot;utf-8&quot;&gt;Display Help" style="points=[[0.25,0,0],[0.5,0,0],[0.75,0,0],[1,0.25,0],[1,0.5,0],[1,0.75,0],[0.75,1,0],[0.5,1,0],[0.25,1,0],[0,0.75,0],[0,0.5,0],[0,0.25,0]];shape=mxgraph.bpmn.task;whiteSpace=wrap;rectStyle=rounded;size=10;html=1;container=1;expand=0;collapsible=0;taskMarker=abstract;" parent="1" vertex="1">
          <mxGeometry x="770" y="345" width="120" height="80" as="geometry" />
        </mxCell>
        <mxCell id="nNxF-WLNx1MhoD0k2zpD-16" value="" style="points=[[0.145,0.145,0],[0.5,0,0],[0.855,0.145,0],[1,0.5,0],[0.855,0.855,0],[0.5,1,0],[0.145,0.855,0],[0,0.5,0]];shape=mxgraph.bpmn.event;html=1;verticalLabelPosition=bottom;labelBackgroundColor=#ffffff;verticalAlign=top;align=center;perimeter=ellipsePerimeter;outlineConnect=0;aspect=fixed;outline=end;symbol=terminate2;" parent="1" vertex="1">
          <mxGeometry x="1595" y="425" width="50" height="50" as="geometry" />
        </mxCell>
        <mxCell id="nNxF-WLNx1MhoD0k2zpD-17" value="&lt;meta charset=&quot;utf-8&quot;&gt;Post URLs to archive.ph" style="points=[[0.25,0,0],[0.5,0,0],[0.75,0,0],[1,0.25,0],[1,0.5,0],[1,0.75,0],[0.75,1,0],[0.5,1,0],[0.25,1,0],[0,0.75,0],[0,0.5,0],[0,0.25,0]];shape=mxgraph.bpmn.task;whiteSpace=wrap;rectStyle=rounded;size=10;html=1;container=1;expand=0;collapsible=0;taskMarker=abstract;" parent="1" vertex="1">
          <mxGeometry x="940" y="185" width="120" height="80" as="geometry" />
        </mxCell>
        <mxCell id="nNxF-WLNx1MhoD0k2zpD-18" style="edgeStyle=orthogonalEdgeStyle;rounded=0;orthogonalLoop=1;jettySize=auto;html=1;exitX=1;exitY=0.5;exitDx=0;exitDy=0;exitPerimeter=0;entryX=0;entryY=0.5;entryDx=0;entryDy=0;entryPerimeter=0;" parent="1" source="nNxF-WLNx1MhoD0k2zpD-9" target="nNxF-WLNx1MhoD0k2zpD-17" edge="1">
          <mxGeometry relative="1" as="geometry" />
        </mxCell>
        <mxCell id="nNxF-WLNx1MhoD0k2zpD-19" value="&lt;meta charset=&quot;utf-8&quot;&gt;Retrieve archived URLs." style="points=[[0.25,0,0],[0.5,0,0],[0.75,0,0],[1,0.25,0],[1,0.5,0],[1,0.75,0],[0.75,1,0],[0.5,1,0],[0.25,1,0],[0,0.75,0],[0,0.5,0],[0,0.25,0]];shape=mxgraph.bpmn.task;whiteSpace=wrap;rectStyle=rounded;size=10;html=1;container=1;expand=0;collapsible=0;taskMarker=abstract;" parent="1" vertex="1">
          <mxGeometry x="1110" y="185" width="120" height="80" as="geometry" />
        </mxCell>
        <mxCell id="nNxF-WLNx1MhoD0k2zpD-20" style="edgeStyle=orthogonalEdgeStyle;rounded=0;orthogonalLoop=1;jettySize=auto;html=1;exitX=1;exitY=0.5;exitDx=0;exitDy=0;exitPerimeter=0;entryX=0;entryY=0.5;entryDx=0;entryDy=0;entryPerimeter=0;" parent="1" source="nNxF-WLNx1MhoD0k2zpD-17" target="nNxF-WLNx1MhoD0k2zpD-19" edge="1">
          <mxGeometry relative="1" as="geometry" />
        </mxCell>
        <mxCell id="nNxF-WLNx1MhoD0k2zpD-26" style="edgeStyle=orthogonalEdgeStyle;rounded=0;orthogonalLoop=1;jettySize=auto;html=1;exitX=1;exitY=0.5;exitDx=0;exitDy=0;exitPerimeter=0;" parent="1" source="nNxF-WLNx1MhoD0k2zpD-21" target="nNxF-WLNx1MhoD0k2zpD-23" edge="1">
          <mxGeometry relative="1" as="geometry" />
        </mxCell>
        <mxCell id="nNxF-WLNx1MhoD0k2zpD-21" value="&lt;meta charset=&quot;utf-8&quot;&gt;Store original and archived URLs in CSV" style="points=[[0.25,0,0],[0.5,0,0],[0.75,0,0],[1,0.25,0],[1,0.5,0],[1,0.75,0],[0.75,1,0],[0.5,1,0],[0.25,1,0],[0,0.75,0],[0,0.5,0],[0,0.25,0]];shape=mxgraph.bpmn.task;whiteSpace=wrap;rectStyle=rounded;size=10;html=1;container=1;expand=0;collapsible=0;taskMarker=abstract;" parent="1" vertex="1">
          <mxGeometry x="1280" y="185" width="120" height="80" as="geometry" />
        </mxCell>
        <mxCell id="nNxF-WLNx1MhoD0k2zpD-22" style="edgeStyle=orthogonalEdgeStyle;rounded=0;orthogonalLoop=1;jettySize=auto;html=1;exitX=1;exitY=0.5;exitDx=0;exitDy=0;exitPerimeter=0;entryX=0;entryY=0.5;entryDx=0;entryDy=0;entryPerimeter=0;" parent="1" source="nNxF-WLNx1MhoD0k2zpD-19" target="nNxF-WLNx1MhoD0k2zpD-21" edge="1">
          <mxGeometry relative="1" as="geometry" />
        </mxCell>
        <mxCell id="nNxF-WLNx1MhoD0k2zpD-27" style="edgeStyle=orthogonalEdgeStyle;rounded=0;orthogonalLoop=1;jettySize=auto;html=1;exitX=0.5;exitY=1;exitDx=0;exitDy=0;exitPerimeter=0;entryX=0;entryY=0.5;entryDx=0;entryDy=0;entryPerimeter=0;" parent="1" source="nNxF-WLNx1MhoD0k2zpD-23" target="nNxF-WLNx1MhoD0k2zpD-16" edge="1">
          <mxGeometry relative="1" as="geometry" />
        </mxCell>
        <mxCell id="nNxF-WLNx1MhoD0k2zpD-23" value="&lt;meta charset=&quot;utf-8&quot;&gt;Insert into .BIB file?" style="points=[[0.25,0.25,0],[0.5,0,0],[0.75,0.25,0],[1,0.5,0],[0.75,0.75,0],[0.5,1,0],[0.25,0.75,0],[0,0.5,0]];shape=mxgraph.bpmn.gateway2;html=1;verticalLabelPosition=bottom;labelBackgroundColor=#ffffff;verticalAlign=top;align=center;perimeter=rhombusPerimeter;outlineConnect=0;outline=none;symbol=none;" parent="1" vertex="1">
          <mxGeometry x="1450" y="200" width="50" height="50" as="geometry" />
        </mxCell>
        <mxCell id="nNxF-WLNx1MhoD0k2zpD-24" value="&lt;meta charset=&quot;utf-8&quot;&gt;Insert URLs into .BIB" style="points=[[0.25,0,0],[0.5,0,0],[0.75,0,0],[1,0.25,0],[1,0.5,0],[1,0.75,0],[0.75,1,0],[0.5,1,0],[0.25,1,0],[0,0.75,0],[0,0.5,0],[0,0.25,0]];shape=mxgraph.bpmn.task;whiteSpace=wrap;rectStyle=rounded;size=10;html=1;container=1;expand=0;collapsible=0;taskMarker=abstract;" parent="1" vertex="1">
          <mxGeometry x="1560" y="185" width="120" height="80" as="geometry" />
        </mxCell>
        <mxCell id="nNxF-WLNx1MhoD0k2zpD-25" value="Yes" style="edgeStyle=orthogonalEdgeStyle;rounded=0;orthogonalLoop=1;jettySize=auto;html=1;exitX=1;exitY=0.5;exitDx=0;exitDy=0;exitPerimeter=0;entryX=0;entryY=0.5;entryDx=0;entryDy=0;entryPerimeter=0;" parent="1" source="nNxF-WLNx1MhoD0k2zpD-23" target="nNxF-WLNx1MhoD0k2zpD-24" edge="1">
          <mxGeometry relative="1" as="geometry" />
        </mxCell>
        <mxCell id="nNxF-WLNx1MhoD0k2zpD-28" style="edgeStyle=orthogonalEdgeStyle;rounded=0;orthogonalLoop=1;jettySize=auto;html=1;exitX=0.5;exitY=1;exitDx=0;exitDy=0;exitPerimeter=0;entryX=0.5;entryY=0;entryDx=0;entryDy=0;entryPerimeter=0;" parent="1" source="nNxF-WLNx1MhoD0k2zpD-24" target="nNxF-WLNx1MhoD0k2zpD-16" edge="1">
          <mxGeometry relative="1" as="geometry" />
        </mxCell>
        <mxCell id="nNxF-WLNx1MhoD0k2zpD-29" style="edgeStyle=orthogonalEdgeStyle;rounded=0;orthogonalLoop=1;jettySize=auto;html=1;exitX=0;exitY=0.5;exitDx=0;exitDy=0;exitPerimeter=0;entryX=0.5;entryY=0;entryDx=0;entryDy=0;entryPerimeter=0;" parent="1" source="nNxF-WLNx1MhoD0k2zpD-14" target="nNxF-WLNx1MhoD0k2zpD-39" edge="1">
          <mxGeometry relative="1" as="geometry" />
        </mxCell>
        <mxCell id="nNxF-WLNx1MhoD0k2zpD-31" style="edgeStyle=orthogonalEdgeStyle;rounded=0;orthogonalLoop=1;jettySize=auto;html=1;exitX=1;exitY=0.5;exitDx=0;exitDy=0;exitPerimeter=0;entryX=0;entryY=0.5;entryDx=0;entryDy=0;entryPerimeter=0;" parent="1" source="nNxF-WLNx1MhoD0k2zpD-5" target="nNxF-WLNx1MhoD0k2zpD-6" edge="1">
          <mxGeometry relative="1" as="geometry" />
        </mxCell>
        <mxCell id="nNxF-WLNx1MhoD0k2zpD-32" style="edgeStyle=orthogonalEdgeStyle;rounded=0;orthogonalLoop=1;jettySize=auto;html=1;exitX=1;exitY=0.5;exitDx=0;exitDy=0;exitPerimeter=0;entryX=0;entryY=0.5;entryDx=0;entryDy=0;entryPerimeter=0;" parent="1" source="nNxF-WLNx1MhoD0k2zpD-6" target="nNxF-WLNx1MhoD0k2zpD-7" edge="1">
          <mxGeometry relative="1" as="geometry" />
        </mxCell>
        <mxCell id="nNxF-WLNx1MhoD0k2zpD-33" style="edgeStyle=orthogonalEdgeStyle;rounded=0;orthogonalLoop=1;jettySize=auto;html=1;exitX=1;exitY=0.5;exitDx=0;exitDy=0;exitPerimeter=0;entryX=0;entryY=0.5;entryDx=0;entryDy=0;entryPerimeter=0;" parent="1" source="nNxF-WLNx1MhoD0k2zpD-39" target="nNxF-WLNx1MhoD0k2zpD-8" edge="1">
          <mxGeometry relative="1" as="geometry">
            <mxPoint x="665" y="490" as="sourcePoint" />
          </mxGeometry>
        </mxCell>
        <mxCell id="nNxF-WLNx1MhoD0k2zpD-35" value="&lt;meta charset=&quot;utf-8&quot;&gt;URL List" style="shape=mxgraph.bpmn.data;labelPosition=center;verticalLabelPosition=bottom;align=center;verticalAlign=top;size=15;html=1;" parent="1" vertex="1">
          <mxGeometry x="310" y="400" width="40" height="60" as="geometry" />
        </mxCell>
        <mxCell id="nNxF-WLNx1MhoD0k2zpD-37" value="" style="edgeStyle=orthogonalEdgeStyle;rounded=0;orthogonalLoop=1;jettySize=auto;html=1;exitX=1;exitY=0.5;exitDx=0;exitDy=0;exitPerimeter=0;entryX=0;entryY=0.5;entryDx=0;entryDy=0;entryPerimeter=0;" parent="1" source="nNxF-WLNx1MhoD0k2zpD-7" target="nNxF-WLNx1MhoD0k2zpD-36" edge="1">
          <mxGeometry relative="1" as="geometry">
            <mxPoint x="310" y="310" as="sourcePoint" />
            <mxPoint x="670" y="305" as="targetPoint" />
          </mxGeometry>
        </mxCell>
        <mxCell id="nNxF-WLNx1MhoD0k2zpD-36" value="&lt;meta charset=&quot;utf-8&quot;&gt;Save URLs to List" style="points=[[0.25,0,0],[0.5,0,0],[0.75,0,0],[1,0.25,0],[1,0.5,0],[1,0.75,0],[0.75,1,0],[0.5,1,0],[0.25,1,0],[0,0.75,0],[0,0.5,0],[0,0.25,0]];shape=mxgraph.bpmn.task;whiteSpace=wrap;rectStyle=rounded;size=10;html=1;container=1;expand=0;collapsible=0;taskMarker=abstract;" parent="1" vertex="1">
          <mxGeometry x="270" y="265" width="120" height="80" as="geometry" />
        </mxCell>
        <mxCell id="nNxF-WLNx1MhoD0k2zpD-38" value="" style="edgeStyle=elbowEdgeStyle;fontSize=12;html=1;endFill=0;startFill=0;endSize=6;startSize=6;dashed=1;dashPattern=1 4;endArrow=none;startArrow=none;rounded=0;exitX=0.5;exitY=1;exitDx=0;exitDy=0;exitPerimeter=0;" parent="1" source="nNxF-WLNx1MhoD0k2zpD-36" target="nNxF-WLNx1MhoD0k2zpD-35" edge="1">
          <mxGeometry width="160" relative="1" as="geometry">
            <mxPoint x="370" y="440" as="sourcePoint" />
            <mxPoint x="530" y="440" as="targetPoint" />
          </mxGeometry>
        </mxCell>
        <mxCell id="nNxF-WLNx1MhoD0k2zpD-40" value="" style="edgeStyle=orthogonalEdgeStyle;rounded=0;orthogonalLoop=1;jettySize=auto;html=1;exitX=1;exitY=0.5;exitDx=0;exitDy=0;exitPerimeter=0;entryX=0;entryY=0.5;entryDx=0;entryDy=0;entryPerimeter=0;" parent="1" source="nNxF-WLNx1MhoD0k2zpD-36" target="nNxF-WLNx1MhoD0k2zpD-39" edge="1">
          <mxGeometry relative="1" as="geometry">
            <mxPoint x="390" y="305" as="sourcePoint" />
            <mxPoint x="450" y="305" as="targetPoint" />
          </mxGeometry>
        </mxCell>
        <mxCell id="nNxF-WLNx1MhoD0k2zpD-39" value="Display URL to user" style="points=[[0.25,0,0],[0.5,0,0],[0.75,0,0],[1,0.25,0],[1,0.5,0],[1,0.75,0],[0.75,1,0],[0.5,1,0],[0.25,1,0],[0,0.75,0],[0,0.5,0],[0,0.25,0]];shape=mxgraph.bpmn.task;whiteSpace=wrap;rectStyle=rounded;size=10;html=1;container=1;expand=0;collapsible=0;taskMarker=abstract;" parent="1" vertex="1">
          <mxGeometry x="440" y="265" width="120" height="80" as="geometry" />
        </mxCell>
        <mxCell id="nNxF-WLNx1MhoD0k2zpD-42" style="edgeStyle=orthogonalEdgeStyle;rounded=0;orthogonalLoop=1;jettySize=auto;html=1;exitX=0.5;exitY=1;exitDx=0;exitDy=0;exitPerimeter=0;entryX=0.5;entryY=1;entryDx=0;entryDy=0;entryPerimeter=0;" parent="1" source="nNxF-WLNx1MhoD0k2zpD-15" target="nNxF-WLNx1MhoD0k2zpD-8" edge="1">
          <mxGeometry relative="1" as="geometry" />
        </mxCell>
      </root>
    </mxGraphModel>
  </diagram>
  <diagram id="GmtVHoaesf2c8vPWMz9b" name="detailed_curved">
    <mxGraphModel dx="2901" dy="1123" grid="1" gridSize="10" guides="1" tooltips="1" connect="1" arrows="1" fold="1" page="1" pageScale="1" pageWidth="827" pageHeight="1169" math="0" shadow="0">
      <root>
        <mxCell id="0" />
        <mxCell id="1" parent="0" />
        <mxCell id="5TtPifL324ht-J7ssvI7-1" value="" style="points=[[0.145,0.145,0],[0.5,0,0],[0.855,0.145,0],[1,0.5,0],[0.855,0.855,0],[0.5,1,0],[0.145,0.855,0],[0,0.5,0]];shape=mxgraph.bpmn.event;html=1;verticalLabelPosition=bottom;labelBackgroundColor=#ffffff;verticalAlign=top;align=center;perimeter=ellipsePerimeter;outlineConnect=0;aspect=fixed;outline=standard;symbol=general;" parent="1" vertex="1">
          <mxGeometry x="-160" y="280" width="50" height="50" as="geometry" />
        </mxCell>
        <mxCell id="5TtPifL324ht-J7ssvI7-2" value="Read input from a specified directory or file" style="points=[[0.25,0,0],[0.5,0,0],[0.75,0,0],[1,0.25,0],[1,0.5,0],[1,0.75,0],[0.75,1,0],[0.5,1,0],[0.25,1,0],[0,0.75,0],[0,0.5,0],[0,0.25,0]];shape=mxgraph.bpmn.task;whiteSpace=wrap;rectStyle=rounded;size=10;html=1;container=1;expand=0;collapsible=0;taskMarker=abstract;" parent="1" vertex="1">
          <mxGeometry x="-70" y="265" width="120" height="80" as="geometry" />
        </mxCell>
        <mxCell id="5TtPifL324ht-J7ssvI7-3" value="Scan file(s) for URLs" style="points=[[0.25,0,0],[0.5,0,0],[0.75,0,0],[1,0.25,0],[1,0.5,0],[1,0.75,0],[0.75,1,0],[0.5,1,0],[0.25,1,0],[0,0.75,0],[0,0.5,0],[0,0.25,0]];shape=mxgraph.bpmn.task;whiteSpace=wrap;rectStyle=rounded;size=10;html=1;container=1;expand=0;collapsible=0;taskMarker=abstract;" parent="1" vertex="1">
          <mxGeometry x="-70" y="400" width="120" height="80" as="geometry" />
        </mxCell>
        <mxCell id="5TtPifL324ht-J7ssvI7-4" value="Quit the program" style="edgeStyle=orthogonalEdgeStyle;rounded=0;orthogonalLoop=1;jettySize=auto;html=1;entryX=0.5;entryY=1;entryDx=0;entryDy=0;entryPerimeter=0;exitX=0.75;exitY=0.75;exitDx=0;exitDy=0;exitPerimeter=0;" parent="1" source="5TtPifL324ht-J7ssvI7-8" target="5TtPifL324ht-J7ssvI7-12" edge="1">
          <mxGeometry x="-0.535" y="10" relative="1" as="geometry">
            <mxPoint x="955" y="690" as="targetPoint" />
            <Array as="points">
              <mxPoint x="367" y="380" />
              <mxPoint x="1140" y="380" />
            </Array>
            <mxPoint as="offset" />
          </mxGeometry>
        </mxCell>
        <mxCell id="5TtPifL324ht-J7ssvI7-5" value="Display help" style="edgeStyle=orthogonalEdgeStyle;rounded=0;orthogonalLoop=1;jettySize=auto;html=1;exitX=1;exitY=0.5;exitDx=0;exitDy=0;exitPerimeter=0;entryX=1;entryY=0.5;entryDx=0;entryDy=0;entryPerimeter=0;" parent="1" source="5TtPifL324ht-J7ssvI7-8" target="5TtPifL324ht-J7ssvI7-11" edge="1">
          <mxGeometry x="-0.2381" relative="1" as="geometry">
            <mxPoint x="975" y="460" as="targetPoint" />
            <mxPoint as="offset" />
          </mxGeometry>
        </mxCell>
        <mxCell id="5TtPifL324ht-J7ssvI7-6" value="Launch URLs in a browser" style="edgeStyle=orthogonalEdgeStyle;rounded=0;orthogonalLoop=1;jettySize=auto;html=1;exitX=1;exitY=0.5;exitDx=0;exitDy=0;exitPerimeter=0;entryX=0;entryY=0.5;entryDx=0;entryDy=0;entryPerimeter=0;" parent="1" source="5TtPifL324ht-J7ssvI7-8" target="5TtPifL324ht-J7ssvI7-9" edge="1">
          <mxGeometry x="-0.2622" relative="1" as="geometry">
            <mxPoint x="1005" y="100" as="targetPoint" />
            <mxPoint y="1" as="offset" />
          </mxGeometry>
        </mxCell>
        <mxCell id="5TtPifL324ht-J7ssvI7-7" value="Skip to the next URL" style="edgeStyle=orthogonalEdgeStyle;rounded=0;orthogonalLoop=1;jettySize=auto;html=1;exitX=0.5;exitY=0;exitDx=0;exitDy=0;exitPerimeter=0;entryX=0.5;entryY=1;entryDx=0;entryDy=0;entryPerimeter=0;" parent="1" source="5TtPifL324ht-J7ssvI7-8" target="5TtPifL324ht-J7ssvI7-10" edge="1">
          <mxGeometry relative="1" as="geometry">
            <mxPoint x="975" y="230" as="targetPoint" />
          </mxGeometry>
        </mxCell>
        <mxCell id="5TtPifL324ht-J7ssvI7-8" value="" style="points=[[0.25,0.25,0],[0.5,0,0],[0.75,0.25,0],[1,0.5,0],[0.75,0.75,0],[0.5,1,0],[0.25,0.75,0],[0,0.5,0]];shape=mxgraph.bpmn.gateway2;html=1;verticalLabelPosition=bottom;labelBackgroundColor=#ffffff;verticalAlign=top;align=center;perimeter=rhombusPerimeter;outlineConnect=0;outline=none;symbol=none;" parent="1" vertex="1">
          <mxGeometry x="329" y="280" width="50" height="50" as="geometry" />
        </mxCell>
        <mxCell id="5TtPifL324ht-J7ssvI7-9" value="Launch URLs" style="points=[[0.25,0,0],[0.5,0,0],[0.75,0,0],[1,0.25,0],[1,0.5,0],[1,0.75,0],[0.75,1,0],[0.5,1,0],[0.25,1,0],[0,0.75,0],[0,0.5,0],[0,0.25,0]];shape=mxgraph.bpmn.task;whiteSpace=wrap;rectStyle=rounded;size=10;html=1;container=1;expand=0;collapsible=0;taskMarker=abstract;" parent="1" vertex="1">
          <mxGeometry x="540" y="140" width="120" height="80" as="geometry" />
        </mxCell>
        <mxCell id="5TtPifL324ht-J7ssvI7-10" value="&lt;meta charset=&quot;utf-8&quot;&gt;Skip to Next URL" style="points=[[0.25,0,0],[0.5,0,0],[0.75,0,0],[1,0.25,0],[1,0.5,0],[1,0.75,0],[0.75,1,0],[0.5,1,0],[0.25,1,0],[0,0.75,0],[0,0.5,0],[0,0.25,0]];shape=mxgraph.bpmn.task;whiteSpace=wrap;rectStyle=rounded;size=10;html=1;container=1;expand=0;collapsible=0;taskMarker=abstract;" parent="1" vertex="1">
          <mxGeometry x="294" y="140" width="120" height="80" as="geometry" />
        </mxCell>
        <mxCell id="5TtPifL324ht-J7ssvI7-11" value="&lt;meta charset=&quot;utf-8&quot;&gt;Display Help" style="points=[[0.25,0,0],[0.5,0,0],[0.75,0,0],[1,0.25,0],[1,0.5,0],[1,0.75,0],[0.75,1,0],[0.5,1,0],[0.25,1,0],[0,0.75,0],[0,0.5,0],[0,0.25,0]];shape=mxgraph.bpmn.task;whiteSpace=wrap;rectStyle=rounded;size=10;html=1;container=1;expand=0;collapsible=0;taskMarker=abstract;" parent="1" vertex="1">
          <mxGeometry x="294" y="400" width="120" height="80" as="geometry" />
        </mxCell>
        <mxCell id="5TtPifL324ht-J7ssvI7-12" value="" style="points=[[0.145,0.145,0],[0.5,0,0],[0.855,0.145,0],[1,0.5,0],[0.855,0.855,0],[0.5,1,0],[0.145,0.855,0],[0,0.5,0]];shape=mxgraph.bpmn.event;html=1;verticalLabelPosition=bottom;labelBackgroundColor=#ffffff;verticalAlign=top;align=center;perimeter=ellipsePerimeter;outlineConnect=0;aspect=fixed;outline=end;symbol=terminate2;" parent="1" vertex="1">
          <mxGeometry x="1115" y="280" width="50" height="50" as="geometry" />
        </mxCell>
        <mxCell id="5TtPifL324ht-J7ssvI7-13" value="&lt;meta charset=&quot;utf-8&quot;&gt;Post URLs to archive.ph" style="points=[[0.25,0,0],[0.5,0,0],[0.75,0,0],[1,0.25,0],[1,0.5,0],[1,0.75,0],[0.75,1,0],[0.5,1,0],[0.25,1,0],[0,0.75,0],[0,0.5,0],[0,0.25,0]];shape=mxgraph.bpmn.task;whiteSpace=wrap;rectStyle=rounded;size=10;html=1;container=1;expand=0;collapsible=0;taskMarker=abstract;" parent="1" vertex="1">
          <mxGeometry x="540" y="265" width="120" height="80" as="geometry" />
        </mxCell>
        <mxCell id="5TtPifL324ht-J7ssvI7-14" style="edgeStyle=orthogonalEdgeStyle;rounded=0;orthogonalLoop=1;jettySize=auto;html=1;" parent="1" source="5TtPifL324ht-J7ssvI7-9" target="5TtPifL324ht-J7ssvI7-13" edge="1">
          <mxGeometry relative="1" as="geometry" />
        </mxCell>
        <mxCell id="5TtPifL324ht-J7ssvI7-15" value="&lt;meta charset=&quot;utf-8&quot;&gt;Retrieve archived URLs." style="points=[[0.25,0,0],[0.5,0,0],[0.75,0,0],[1,0.25,0],[1,0.5,0],[1,0.75,0],[0.75,1,0],[0.5,1,0],[0.25,1,0],[0,0.75,0],[0,0.5,0],[0,0.25,0]];shape=mxgraph.bpmn.task;whiteSpace=wrap;rectStyle=rounded;size=10;html=1;container=1;expand=0;collapsible=0;taskMarker=abstract;" parent="1" vertex="1">
          <mxGeometry x="720" y="265" width="120" height="80" as="geometry" />
        </mxCell>
        <mxCell id="5TtPifL324ht-J7ssvI7-16" style="edgeStyle=orthogonalEdgeStyle;rounded=0;orthogonalLoop=1;jettySize=auto;html=1;exitX=1;exitY=0.5;exitDx=0;exitDy=0;exitPerimeter=0;entryX=0;entryY=0.5;entryDx=0;entryDy=0;entryPerimeter=0;" parent="1" source="5TtPifL324ht-J7ssvI7-13" target="5TtPifL324ht-J7ssvI7-15" edge="1">
          <mxGeometry relative="1" as="geometry" />
        </mxCell>
        <mxCell id="5TtPifL324ht-J7ssvI7-17" style="edgeStyle=orthogonalEdgeStyle;rounded=0;orthogonalLoop=1;jettySize=auto;html=1;exitX=1;exitY=0.5;exitDx=0;exitDy=0;exitPerimeter=0;" parent="1" source="5TtPifL324ht-J7ssvI7-18" target="5TtPifL324ht-J7ssvI7-21" edge="1">
          <mxGeometry relative="1" as="geometry" />
        </mxCell>
        <mxCell id="5TtPifL324ht-J7ssvI7-18" value="&lt;meta charset=&quot;utf-8&quot;&gt;Store original and archived URLs in CSV" style="points=[[0.25,0,0],[0.5,0,0],[0.75,0,0],[1,0.25,0],[1,0.5,0],[1,0.75,0],[0.75,1,0],[0.5,1,0],[0.25,1,0],[0,0.75,0],[0,0.5,0],[0,0.25,0]];shape=mxgraph.bpmn.task;whiteSpace=wrap;rectStyle=rounded;size=10;html=1;container=1;expand=0;collapsible=0;taskMarker=abstract;" parent="1" vertex="1">
          <mxGeometry x="720" y="140" width="120" height="80" as="geometry" />
        </mxCell>
        <mxCell id="5TtPifL324ht-J7ssvI7-19" style="edgeStyle=orthogonalEdgeStyle;rounded=0;orthogonalLoop=1;jettySize=auto;html=1;" parent="1" source="5TtPifL324ht-J7ssvI7-15" target="5TtPifL324ht-J7ssvI7-18" edge="1">
          <mxGeometry relative="1" as="geometry" />
        </mxCell>
        <mxCell id="5TtPifL324ht-J7ssvI7-20" style="edgeStyle=orthogonalEdgeStyle;rounded=0;orthogonalLoop=1;jettySize=auto;html=1;exitX=0.5;exitY=1;exitDx=0;exitDy=0;exitPerimeter=0;entryX=0;entryY=0.5;entryDx=0;entryDy=0;entryPerimeter=0;" parent="1" source="5TtPifL324ht-J7ssvI7-21" target="5TtPifL324ht-J7ssvI7-12" edge="1">
          <mxGeometry relative="1" as="geometry" />
        </mxCell>
        <mxCell id="5TtPifL324ht-J7ssvI7-21" value="&lt;meta charset=&quot;utf-8&quot;&gt;Insert into .BIB file?" style="points=[[0.25,0.25,0],[0.5,0,0],[0.75,0.25,0],[1,0.5,0],[0.75,0.75,0],[0.5,1,0],[0.25,0.75,0],[0,0.5,0]];shape=mxgraph.bpmn.gateway2;html=1;verticalLabelPosition=bottom;labelBackgroundColor=#ffffff;verticalAlign=top;align=center;perimeter=rhombusPerimeter;outlineConnect=0;outline=none;symbol=none;" parent="1" vertex="1">
          <mxGeometry x="940" y="155" width="50" height="50" as="geometry" />
        </mxCell>
        <mxCell id="5TtPifL324ht-J7ssvI7-22" value="&lt;meta charset=&quot;utf-8&quot;&gt;Insert URLs into .BIB" style="points=[[0.25,0,0],[0.5,0,0],[0.75,0,0],[1,0.25,0],[1,0.5,0],[1,0.75,0],[0.75,1,0],[0.5,1,0],[0.25,1,0],[0,0.75,0],[0,0.5,0],[0,0.25,0]];shape=mxgraph.bpmn.task;whiteSpace=wrap;rectStyle=rounded;size=10;html=1;container=1;expand=0;collapsible=0;taskMarker=abstract;" parent="1" vertex="1">
          <mxGeometry x="1080" y="140" width="120" height="80" as="geometry" />
        </mxCell>
        <mxCell id="5TtPifL324ht-J7ssvI7-23" value="Yes" style="edgeStyle=orthogonalEdgeStyle;rounded=0;orthogonalLoop=1;jettySize=auto;html=1;exitX=1;exitY=0.5;exitDx=0;exitDy=0;exitPerimeter=0;entryX=0;entryY=0.5;entryDx=0;entryDy=0;entryPerimeter=0;" parent="1" source="5TtPifL324ht-J7ssvI7-21" target="5TtPifL324ht-J7ssvI7-22" edge="1">
          <mxGeometry relative="1" as="geometry" />
        </mxCell>
        <mxCell id="5TtPifL324ht-J7ssvI7-24" style="edgeStyle=orthogonalEdgeStyle;rounded=0;orthogonalLoop=1;jettySize=auto;html=1;exitX=0.5;exitY=1;exitDx=0;exitDy=0;exitPerimeter=0;entryX=0.5;entryY=0;entryDx=0;entryDy=0;entryPerimeter=0;" parent="1" source="5TtPifL324ht-J7ssvI7-22" target="5TtPifL324ht-J7ssvI7-12" edge="1">
          <mxGeometry relative="1" as="geometry" />
        </mxCell>
        <mxCell id="5TtPifL324ht-J7ssvI7-25" style="edgeStyle=orthogonalEdgeStyle;rounded=0;orthogonalLoop=1;jettySize=auto;html=1;exitX=0;exitY=0.5;exitDx=0;exitDy=0;exitPerimeter=0;entryX=0.5;entryY=0;entryDx=0;entryDy=0;entryPerimeter=0;" parent="1" source="5TtPifL324ht-J7ssvI7-10" target="5TtPifL324ht-J7ssvI7-34" edge="1">
          <mxGeometry relative="1" as="geometry" />
        </mxCell>
        <mxCell id="5TtPifL324ht-J7ssvI7-26" style="edgeStyle=orthogonalEdgeStyle;rounded=0;orthogonalLoop=1;jettySize=auto;html=1;exitX=1;exitY=0.5;exitDx=0;exitDy=0;exitPerimeter=0;entryX=0;entryY=0.5;entryDx=0;entryDy=0;entryPerimeter=0;" parent="1" source="5TtPifL324ht-J7ssvI7-1" target="5TtPifL324ht-J7ssvI7-2" edge="1">
          <mxGeometry relative="1" as="geometry" />
        </mxCell>
        <mxCell id="5TtPifL324ht-J7ssvI7-27" style="edgeStyle=orthogonalEdgeStyle;rounded=0;orthogonalLoop=1;jettySize=auto;html=1;" parent="1" source="5TtPifL324ht-J7ssvI7-2" target="5TtPifL324ht-J7ssvI7-3" edge="1">
          <mxGeometry relative="1" as="geometry" />
        </mxCell>
        <mxCell id="5TtPifL324ht-J7ssvI7-28" style="edgeStyle=orthogonalEdgeStyle;rounded=0;orthogonalLoop=1;jettySize=auto;html=1;exitX=1;exitY=0.5;exitDx=0;exitDy=0;exitPerimeter=0;entryX=0;entryY=0.5;entryDx=0;entryDy=0;entryPerimeter=0;" parent="1" source="5TtPifL324ht-J7ssvI7-34" target="5TtPifL324ht-J7ssvI7-8" edge="1">
          <mxGeometry relative="1" as="geometry">
            <mxPoint x="665" y="490" as="sourcePoint" />
          </mxGeometry>
        </mxCell>
        <mxCell id="5TtPifL324ht-J7ssvI7-29" value="&lt;meta charset=&quot;utf-8&quot;&gt;URL List" style="shape=mxgraph.bpmn.data;labelPosition=center;verticalLabelPosition=bottom;align=center;verticalAlign=top;size=15;html=1;" parent="1" vertex="1">
          <mxGeometry x="150" y="525" width="40" height="60" as="geometry" />
        </mxCell>
        <mxCell id="5TtPifL324ht-J7ssvI7-30" value="" style="edgeStyle=orthogonalEdgeStyle;rounded=0;orthogonalLoop=1;jettySize=auto;html=1;exitX=1;exitY=0.5;exitDx=0;exitDy=0;exitPerimeter=0;entryX=0;entryY=0.5;entryDx=0;entryDy=0;entryPerimeter=0;" parent="1" source="5TtPifL324ht-J7ssvI7-3" target="5TtPifL324ht-J7ssvI7-31" edge="1">
          <mxGeometry relative="1" as="geometry">
            <mxPoint x="310" y="310" as="sourcePoint" />
            <mxPoint x="670" y="305" as="targetPoint" />
          </mxGeometry>
        </mxCell>
        <mxCell id="5TtPifL324ht-J7ssvI7-31" value="&lt;meta charset=&quot;utf-8&quot;&gt;Save URLs to List" style="points=[[0.25,0,0],[0.5,0,0],[0.75,0,0],[1,0.25,0],[1,0.5,0],[1,0.75,0],[0.75,1,0],[0.5,1,0],[0.25,1,0],[0,0.75,0],[0,0.5,0],[0,0.25,0]];shape=mxgraph.bpmn.task;whiteSpace=wrap;rectStyle=rounded;size=10;html=1;container=1;expand=0;collapsible=0;taskMarker=abstract;" parent="1" vertex="1">
          <mxGeometry x="110" y="400" width="120" height="80" as="geometry" />
        </mxCell>
        <mxCell id="5TtPifL324ht-J7ssvI7-32" value="" style="edgeStyle=elbowEdgeStyle;fontSize=12;html=1;endFill=0;startFill=0;endSize=6;startSize=6;dashed=1;dashPattern=1 4;endArrow=none;startArrow=none;rounded=0;exitX=0.5;exitY=1;exitDx=0;exitDy=0;exitPerimeter=0;" parent="1" source="5TtPifL324ht-J7ssvI7-31" target="5TtPifL324ht-J7ssvI7-29" edge="1">
          <mxGeometry width="160" relative="1" as="geometry">
            <mxPoint x="370" y="440" as="sourcePoint" />
            <mxPoint x="530" y="440" as="targetPoint" />
          </mxGeometry>
        </mxCell>
        <mxCell id="5TtPifL324ht-J7ssvI7-33" value="" style="edgeStyle=orthogonalEdgeStyle;rounded=0;orthogonalLoop=1;jettySize=auto;html=1;" parent="1" source="5TtPifL324ht-J7ssvI7-31" target="5TtPifL324ht-J7ssvI7-34" edge="1">
          <mxGeometry relative="1" as="geometry">
            <mxPoint x="390" y="305" as="sourcePoint" />
            <mxPoint x="450" y="305" as="targetPoint" />
          </mxGeometry>
        </mxCell>
        <mxCell id="5TtPifL324ht-J7ssvI7-34" value="Display URL to user" style="points=[[0.25,0,0],[0.5,0,0],[0.75,0,0],[1,0.25,0],[1,0.5,0],[1,0.75,0],[0.75,1,0],[0.5,1,0],[0.25,1,0],[0,0.75,0],[0,0.5,0],[0,0.25,0]];shape=mxgraph.bpmn.task;whiteSpace=wrap;rectStyle=rounded;size=10;html=1;container=1;expand=0;collapsible=0;taskMarker=abstract;" parent="1" vertex="1">
          <mxGeometry x="110" y="265" width="120" height="80" as="geometry" />
        </mxCell>
        <mxCell id="5TtPifL324ht-J7ssvI7-35" style="edgeStyle=orthogonalEdgeStyle;rounded=0;orthogonalLoop=1;jettySize=auto;html=1;entryX=0.5;entryY=1;entryDx=0;entryDy=0;entryPerimeter=0;" parent="1" source="5TtPifL324ht-J7ssvI7-11" target="5TtPifL324ht-J7ssvI7-8" edge="1">
          <mxGeometry relative="1" as="geometry" />
        </mxCell>
      </root>
    </mxGraphModel>
  </diagram>
  <diagram id="Fzf46ys4qCWOAPACPkvO" name="simple-horizontal">
    <mxGraphModel dx="2901" dy="1123" grid="1" gridSize="10" guides="1" tooltips="1" connect="1" arrows="1" fold="1" page="1" pageScale="1" pageWidth="827" pageHeight="1169" math="0" shadow="0">
      <root>
        <mxCell id="0" />
        <mxCell id="1" parent="0" />
        <mxCell id="5K-pSgDyo4ZqD_KOKcNR-55" value="&lt;br&gt;User can choose one or both archiving services" style="rounded=1;whiteSpace=wrap;html=1;verticalAlign=top;fillColor=#f5f5f5;fontColor=#333333;strokeColor=#666666;fontStyle=1" parent="1" vertex="1">
          <mxGeometry x="250" y="270" width="180" height="340" as="geometry" />
        </mxCell>
        <mxCell id="5K-pSgDyo4ZqD_KOKcNR-38" style="edgeStyle=orthogonalEdgeStyle;rounded=0;orthogonalLoop=1;jettySize=auto;html=1;exitX=1;exitY=0.5;exitDx=0;exitDy=0;exitPerimeter=0;" parent="1" source="5K-pSgDyo4ZqD_KOKcNR-36" target="5K-pSgDyo4ZqD_KOKcNR-37" edge="1">
          <mxGeometry relative="1" as="geometry" />
        </mxCell>
        <mxCell id="5K-pSgDyo4ZqD_KOKcNR-36" value="" style="points=[[0.145,0.145,0],[0.5,0,0],[0.855,0.145,0],[1,0.5,0],[0.855,0.855,0],[0.5,1,0],[0.145,0.855,0],[0,0.5,0]];shape=mxgraph.bpmn.event;html=1;verticalLabelPosition=bottom;labelBackgroundColor=#ffffff;verticalAlign=top;align=center;perimeter=ellipsePerimeter;outlineConnect=0;aspect=fixed;outline=standard;symbol=general;" parent="1" vertex="1">
          <mxGeometry x="-130" y="435" width="50" height="50" as="geometry" />
        </mxCell>
        <mxCell id="5K-pSgDyo4ZqD_KOKcNR-37" value="Extract URL&#39;s from file(s)" style="points=[[0.25,0,0],[0.5,0,0],[0.75,0,0],[1,0.25,0],[1,0.5,0],[1,0.75,0],[0.75,1,0],[0.5,1,0],[0.25,1,0],[0,0.75,0],[0,0.5,0],[0,0.25,0]];shape=mxgraph.bpmn.task;whiteSpace=wrap;rectStyle=rounded;size=10;html=1;container=1;expand=0;collapsible=0;taskMarker=abstract;" parent="1" vertex="1">
          <mxGeometry x="-40" y="420" width="120" height="80" as="geometry" />
        </mxCell>
        <mxCell id="5K-pSgDyo4ZqD_KOKcNR-43" style="edgeStyle=orthogonalEdgeStyle;rounded=0;orthogonalLoop=1;jettySize=auto;html=1;exitX=1;exitY=0.5;exitDx=0;exitDy=0;exitPerimeter=0;" parent="1" source="5K-pSgDyo4ZqD_KOKcNR-39" target="5K-pSgDyo4ZqD_KOKcNR-41" edge="1">
          <mxGeometry relative="1" as="geometry" />
        </mxCell>
        <mxCell id="5K-pSgDyo4ZqD_KOKcNR-39" value="Launch URL in default browser" style="points=[[0.25,0,0],[0.5,0,0],[0.75,0,0],[1,0.25,0],[1,0.5,0],[1,0.75,0],[0.75,1,0],[0.5,1,0],[0.25,1,0],[0,0.75,0],[0,0.5,0],[0,0.25,0]];shape=mxgraph.bpmn.task;whiteSpace=wrap;rectStyle=rounded;size=10;html=1;container=1;expand=0;collapsible=0;taskMarker=abstract;" parent="1" vertex="1">
          <mxGeometry x="120" y="420" width="120" height="80" as="geometry" />
        </mxCell>
        <mxCell id="5K-pSgDyo4ZqD_KOKcNR-40" style="edgeStyle=orthogonalEdgeStyle;rounded=0;orthogonalLoop=1;jettySize=auto;html=1;exitX=1;exitY=0.5;exitDx=0;exitDy=0;exitPerimeter=0;entryX=0;entryY=0.5;entryDx=0;entryDy=0;entryPerimeter=0;" parent="1" source="5K-pSgDyo4ZqD_KOKcNR-37" target="5K-pSgDyo4ZqD_KOKcNR-39" edge="1">
          <mxGeometry relative="1" as="geometry" />
        </mxCell>
        <mxCell id="5K-pSgDyo4ZqD_KOKcNR-41" value="Archive URL to archive.today" style="points=[[0.25,0,0],[0.5,0,0],[0.75,0,0],[1,0.25,0],[1,0.5,0],[1,0.75,0],[0.75,1,0],[0.5,1,0],[0.25,1,0],[0,0.75,0],[0,0.5,0],[0,0.25,0]];shape=mxgraph.bpmn.task;whiteSpace=wrap;rectStyle=rounded;size=10;html=1;container=1;expand=0;collapsible=0;taskMarker=abstract;" parent="1" vertex="1">
          <mxGeometry x="280" y="340" width="120" height="80" as="geometry" />
        </mxCell>
        <mxCell id="5K-pSgDyo4ZqD_KOKcNR-42" value="Archive URL to&amp;nbsp;web.archive.org" style="points=[[0.25,0,0],[0.5,0,0],[0.75,0,0],[1,0.25,0],[1,0.5,0],[1,0.75,0],[0.75,1,0],[0.5,1,0],[0.25,1,0],[0,0.75,0],[0,0.5,0],[0,0.25,0]];shape=mxgraph.bpmn.task;whiteSpace=wrap;rectStyle=rounded;size=10;html=1;container=1;expand=0;collapsible=0;taskMarker=abstract;" parent="1" vertex="1">
          <mxGeometry x="280" y="500" width="120" height="80" as="geometry" />
        </mxCell>
        <mxCell id="5K-pSgDyo4ZqD_KOKcNR-44" style="edgeStyle=orthogonalEdgeStyle;rounded=0;orthogonalLoop=1;jettySize=auto;html=1;exitX=1;exitY=0.5;exitDx=0;exitDy=0;exitPerimeter=0;entryX=0;entryY=0.5;entryDx=0;entryDy=0;entryPerimeter=0;" parent="1" source="5K-pSgDyo4ZqD_KOKcNR-39" target="5K-pSgDyo4ZqD_KOKcNR-42" edge="1">
          <mxGeometry relative="1" as="geometry" />
        </mxCell>
        <mxCell id="5K-pSgDyo4ZqD_KOKcNR-45" value="Retrieve archived URLs" style="points=[[0.25,0,0],[0.5,0,0],[0.75,0,0],[1,0.25,0],[1,0.5,0],[1,0.75,0],[0.75,1,0],[0.5,1,0],[0.25,1,0],[0,0.75,0],[0,0.5,0],[0,0.25,0]];shape=mxgraph.bpmn.task;whiteSpace=wrap;rectStyle=rounded;size=10;html=1;container=1;expand=0;collapsible=0;taskMarker=abstract;" parent="1" vertex="1">
          <mxGeometry x="443.5" y="420" width="120" height="80" as="geometry" />
        </mxCell>
        <mxCell id="5K-pSgDyo4ZqD_KOKcNR-46" style="edgeStyle=orthogonalEdgeStyle;rounded=0;orthogonalLoop=1;jettySize=auto;html=1;exitX=1;exitY=0.5;exitDx=0;exitDy=0;exitPerimeter=0;entryX=0;entryY=0.5;entryDx=0;entryDy=0;entryPerimeter=0;" parent="1" source="5K-pSgDyo4ZqD_KOKcNR-41" target="5K-pSgDyo4ZqD_KOKcNR-45" edge="1">
          <mxGeometry relative="1" as="geometry" />
        </mxCell>
        <mxCell id="5K-pSgDyo4ZqD_KOKcNR-47" style="edgeStyle=orthogonalEdgeStyle;rounded=0;orthogonalLoop=1;jettySize=auto;html=1;exitX=1;exitY=0.5;exitDx=0;exitDy=0;exitPerimeter=0;entryX=0;entryY=0.5;entryDx=0;entryDy=0;entryPerimeter=0;" parent="1" source="5K-pSgDyo4ZqD_KOKcNR-42" target="5K-pSgDyo4ZqD_KOKcNR-45" edge="1">
          <mxGeometry relative="1" as="geometry" />
        </mxCell>
        <mxCell id="5K-pSgDyo4ZqD_KOKcNR-48" value="&lt;meta charset=&quot;utf-8&quot;&gt;Store original and archived URLs in CSV" style="points=[[0.25,0,0],[0.5,0,0],[0.75,0,0],[1,0.25,0],[1,0.5,0],[1,0.75,0],[0.75,1,0],[0.5,1,0],[0.25,1,0],[0,0.75,0],[0,0.5,0],[0,0.25,0]];shape=mxgraph.bpmn.task;whiteSpace=wrap;rectStyle=rounded;size=10;html=1;container=1;expand=0;collapsible=0;taskMarker=abstract;" parent="1" vertex="1">
          <mxGeometry x="600" y="420" width="120" height="80" as="geometry" />
        </mxCell>
        <mxCell id="5K-pSgDyo4ZqD_KOKcNR-49" style="edgeStyle=orthogonalEdgeStyle;rounded=0;orthogonalLoop=1;jettySize=auto;html=1;exitX=1;exitY=0.5;exitDx=0;exitDy=0;exitPerimeter=0;entryX=0;entryY=0.5;entryDx=0;entryDy=0;entryPerimeter=0;" parent="1" source="5K-pSgDyo4ZqD_KOKcNR-45" target="5K-pSgDyo4ZqD_KOKcNR-48" edge="1">
          <mxGeometry relative="1" as="geometry" />
        </mxCell>
        <mxCell id="5K-pSgDyo4ZqD_KOKcNR-50" value="&lt;meta charset=&quot;utf-8&quot;&gt;Insert URLs into .BIB" style="points=[[0.25,0,0],[0.5,0,0],[0.75,0,0],[1,0.25,0],[1,0.5,0],[1,0.75,0],[0.75,1,0],[0.5,1,0],[0.25,1,0],[0,0.75,0],[0,0.5,0],[0,0.25,0]];shape=mxgraph.bpmn.task;whiteSpace=wrap;rectStyle=rounded;size=10;html=1;container=1;expand=0;collapsible=0;taskMarker=abstract;dashed=1;" parent="1" vertex="1">
          <mxGeometry x="760" y="420" width="120" height="80" as="geometry" />
        </mxCell>
        <mxCell id="5K-pSgDyo4ZqD_KOKcNR-51" style="edgeStyle=orthogonalEdgeStyle;rounded=0;orthogonalLoop=1;jettySize=auto;html=1;exitX=1;exitY=0.5;exitDx=0;exitDy=0;exitPerimeter=0;entryX=0;entryY=0.5;entryDx=0;entryDy=0;entryPerimeter=0;" parent="1" source="5K-pSgDyo4ZqD_KOKcNR-48" target="5K-pSgDyo4ZqD_KOKcNR-50" edge="1">
          <mxGeometry relative="1" as="geometry" />
        </mxCell>
        <mxCell id="5K-pSgDyo4ZqD_KOKcNR-52" value="" style="points=[[0.145,0.145,0],[0.5,0,0],[0.855,0.145,0],[1,0.5,0],[0.855,0.855,0],[0.5,1,0],[0.145,0.855,0],[0,0.5,0]];shape=mxgraph.bpmn.event;html=1;verticalLabelPosition=bottom;labelBackgroundColor=#ffffff;verticalAlign=top;align=center;perimeter=ellipsePerimeter;outlineConnect=0;aspect=fixed;outline=end;symbol=terminate2;" parent="1" vertex="1">
          <mxGeometry x="920" y="435" width="50" height="50" as="geometry" />
        </mxCell>
        <mxCell id="5K-pSgDyo4ZqD_KOKcNR-53" style="edgeStyle=orthogonalEdgeStyle;rounded=0;orthogonalLoop=1;jettySize=auto;html=1;exitX=1;exitY=0.5;exitDx=0;exitDy=0;exitPerimeter=0;entryX=0;entryY=0.5;entryDx=0;entryDy=0;entryPerimeter=0;" parent="1" source="5K-pSgDyo4ZqD_KOKcNR-50" target="5K-pSgDyo4ZqD_KOKcNR-52" edge="1">
          <mxGeometry relative="1" as="geometry" />
        </mxCell>
        <mxCell id="5K-pSgDyo4ZqD_KOKcNR-56" value="Optional step" style="points=[[0.25,0,0],[0.5,0,0],[0.75,0,0],[1,0.25,0],[1,0.5,0],[1,0.75,0],[0.75,1,0],[0.5,1,0],[0.25,1,0],[0,0.75,0],[0,0.5,0],[0,0.25,0]];shape=mxgraph.bpmn.task;whiteSpace=wrap;rectStyle=rounded;size=10;html=1;container=1;expand=0;collapsible=0;taskMarker=abstract;dashed=1;" parent="1" vertex="1">
          <mxGeometry x="-130" y="270" width="120" height="40" as="geometry" />
        </mxCell>
        <mxCell id="5K-pSgDyo4ZqD_KOKcNR-58" value="Mandatory step" style="points=[[0.25,0,0],[0.5,0,0],[0.75,0,0],[1,0.25,0],[1,0.5,0],[1,0.75,0],[0.75,1,0],[0.5,1,0],[0.25,1,0],[0,0.75,0],[0,0.5,0],[0,0.25,0]];shape=mxgraph.bpmn.task;whiteSpace=wrap;rectStyle=rounded;size=10;html=1;container=1;expand=0;collapsible=0;taskMarker=abstract;" parent="1" vertex="1">
          <mxGeometry x="-130" y="320" width="120" height="40" as="geometry" />
        </mxCell>
      </root>
    </mxGraphModel>
  </diagram>
  <diagram name="simple-vertikal" id="YOq_YigFYNbLZlSE3OR0">
    <mxGraphModel dx="2074" dy="1123" grid="1" gridSize="10" guides="1" tooltips="1" connect="1" arrows="1" fold="1" page="1" pageScale="1" pageWidth="827" pageHeight="1169" math="0" shadow="0">
      <root>
        <mxCell id="ofezPAW-ld1FnH1hNWo3-0" />
        <mxCell id="ofezPAW-ld1FnH1hNWo3-1" parent="ofezPAW-ld1FnH1hNWo3-0" />
        <mxCell id="ofezPAW-ld1FnH1hNWo3-2" value="&lt;br&gt;User can choose one or both archiving services" style="rounded=1;whiteSpace=wrap;html=1;verticalAlign=top;fillColor=#f5f5f5;fontColor=#333333;strokeColor=#666666;fontStyle=1" vertex="1" parent="ofezPAW-ld1FnH1hNWo3-1">
          <mxGeometry x="260" y="435" width="350" height="180" as="geometry" />
        </mxCell>
        <mxCell id="ofezPAW-ld1FnH1hNWo3-3" style="edgeStyle=orthogonalEdgeStyle;rounded=0;orthogonalLoop=1;jettySize=auto;html=1;" edge="1" parent="ofezPAW-ld1FnH1hNWo3-1" source="ofezPAW-ld1FnH1hNWo3-4" target="ofezPAW-ld1FnH1hNWo3-5">
          <mxGeometry relative="1" as="geometry" />
        </mxCell>
        <mxCell id="ofezPAW-ld1FnH1hNWo3-4" value="" style="points=[[0.145,0.145,0],[0.5,0,0],[0.855,0.145,0],[1,0.5,0],[0.855,0.855,0],[0.5,1,0],[0.145,0.855,0],[0,0.5,0]];shape=mxgraph.bpmn.event;html=1;verticalLabelPosition=bottom;labelBackgroundColor=#ffffff;verticalAlign=top;align=center;perimeter=ellipsePerimeter;outlineConnect=0;aspect=fixed;outline=standard;symbol=general;" vertex="1" parent="ofezPAW-ld1FnH1hNWo3-1">
          <mxGeometry x="410" y="170" width="50" height="50" as="geometry" />
        </mxCell>
        <mxCell id="ofezPAW-ld1FnH1hNWo3-5" value="Extract URL&#39;s from file(s)" style="points=[[0.25,0,0],[0.5,0,0],[0.75,0,0],[1,0.25,0],[1,0.5,0],[1,0.75,0],[0.75,1,0],[0.5,1,0],[0.25,1,0],[0,0.75,0],[0,0.5,0],[0,0.25,0]];shape=mxgraph.bpmn.task;whiteSpace=wrap;rectStyle=rounded;size=10;html=1;container=1;expand=0;collapsible=0;taskMarker=abstract;" vertex="1" parent="ofezPAW-ld1FnH1hNWo3-1">
          <mxGeometry x="375" y="245" width="120" height="80" as="geometry" />
        </mxCell>
        <mxCell id="ofezPAW-ld1FnH1hNWo3-6" style="edgeStyle=orthogonalEdgeStyle;rounded=0;orthogonalLoop=1;jettySize=auto;html=1;" edge="1" parent="ofezPAW-ld1FnH1hNWo3-1" source="ofezPAW-ld1FnH1hNWo3-7" target="ofezPAW-ld1FnH1hNWo3-9">
          <mxGeometry relative="1" as="geometry">
            <Array as="points">
              <mxPoint x="435" y="445" />
              <mxPoint x="520" y="445" />
            </Array>
          </mxGeometry>
        </mxCell>
        <mxCell id="ofezPAW-ld1FnH1hNWo3-7" value="Launch URL in default browser" style="points=[[0.25,0,0],[0.5,0,0],[0.75,0,0],[1,0.25,0],[1,0.5,0],[1,0.75,0],[0.75,1,0],[0.5,1,0],[0.25,1,0],[0,0.75,0],[0,0.5,0],[0,0.25,0]];shape=mxgraph.bpmn.task;whiteSpace=wrap;rectStyle=rounded;size=10;html=1;container=1;expand=0;collapsible=0;taskMarker=abstract;" vertex="1" parent="ofezPAW-ld1FnH1hNWo3-1">
          <mxGeometry x="375" y="345" width="120" height="80" as="geometry" />
        </mxCell>
        <mxCell id="ofezPAW-ld1FnH1hNWo3-8" style="edgeStyle=orthogonalEdgeStyle;rounded=0;orthogonalLoop=1;jettySize=auto;html=1;" edge="1" parent="ofezPAW-ld1FnH1hNWo3-1" source="ofezPAW-ld1FnH1hNWo3-5" target="ofezPAW-ld1FnH1hNWo3-7">
          <mxGeometry relative="1" as="geometry" />
        </mxCell>
        <mxCell id="ofezPAW-ld1FnH1hNWo3-9" value="Archive URL to archive.today" style="points=[[0.25,0,0],[0.5,0,0],[0.75,0,0],[1,0.25,0],[1,0.5,0],[1,0.75,0],[0.75,1,0],[0.5,1,0],[0.25,1,0],[0,0.75,0],[0,0.5,0],[0,0.25,0]];shape=mxgraph.bpmn.task;whiteSpace=wrap;rectStyle=rounded;size=10;html=1;container=1;expand=0;collapsible=0;taskMarker=abstract;" vertex="1" parent="ofezPAW-ld1FnH1hNWo3-1">
          <mxGeometry x="460" y="495" width="120" height="80" as="geometry" />
        </mxCell>
        <mxCell id="ofezPAW-ld1FnH1hNWo3-10" value="Archive URL to&amp;nbsp;web.archive.org" style="points=[[0.25,0,0],[0.5,0,0],[0.75,0,0],[1,0.25,0],[1,0.5,0],[1,0.75,0],[0.75,1,0],[0.5,1,0],[0.25,1,0],[0,0.75,0],[0,0.5,0],[0,0.25,0]];shape=mxgraph.bpmn.task;whiteSpace=wrap;rectStyle=rounded;size=10;html=1;container=1;expand=0;collapsible=0;taskMarker=abstract;" vertex="1" parent="ofezPAW-ld1FnH1hNWo3-1">
          <mxGeometry x="290" y="495" width="120" height="80" as="geometry" />
        </mxCell>
        <mxCell id="ofezPAW-ld1FnH1hNWo3-11" style="edgeStyle=orthogonalEdgeStyle;rounded=0;orthogonalLoop=1;jettySize=auto;html=1;" edge="1" parent="ofezPAW-ld1FnH1hNWo3-1" source="ofezPAW-ld1FnH1hNWo3-7" target="ofezPAW-ld1FnH1hNWo3-10">
          <mxGeometry relative="1" as="geometry">
            <Array as="points">
              <mxPoint x="435" y="445" />
              <mxPoint x="350" y="445" />
            </Array>
          </mxGeometry>
        </mxCell>
        <mxCell id="ofezPAW-ld1FnH1hNWo3-12" value="Retrieve archived URLs" style="points=[[0.25,0,0],[0.5,0,0],[0.75,0,0],[1,0.25,0],[1,0.5,0],[1,0.75,0],[0.75,1,0],[0.5,1,0],[0.25,1,0],[0,0.75,0],[0,0.5,0],[0,0.25,0]];shape=mxgraph.bpmn.task;whiteSpace=wrap;rectStyle=rounded;size=10;html=1;container=1;expand=0;collapsible=0;taskMarker=abstract;" vertex="1" parent="ofezPAW-ld1FnH1hNWo3-1">
          <mxGeometry x="375" y="635" width="120" height="80" as="geometry" />
        </mxCell>
        <mxCell id="ofezPAW-ld1FnH1hNWo3-13" style="edgeStyle=orthogonalEdgeStyle;rounded=0;orthogonalLoop=1;jettySize=auto;html=1;" edge="1" parent="ofezPAW-ld1FnH1hNWo3-1" source="ofezPAW-ld1FnH1hNWo3-9" target="ofezPAW-ld1FnH1hNWo3-12">
          <mxGeometry relative="1" as="geometry" />
        </mxCell>
        <mxCell id="ofezPAW-ld1FnH1hNWo3-14" style="edgeStyle=orthogonalEdgeStyle;rounded=0;orthogonalLoop=1;jettySize=auto;html=1;" edge="1" parent="ofezPAW-ld1FnH1hNWo3-1" source="ofezPAW-ld1FnH1hNWo3-10" target="ofezPAW-ld1FnH1hNWo3-12">
          <mxGeometry relative="1" as="geometry" />
        </mxCell>
        <mxCell id="ofezPAW-ld1FnH1hNWo3-15" value="&lt;meta charset=&quot;utf-8&quot;&gt;Store original and archived URLs in CSV" style="points=[[0.25,0,0],[0.5,0,0],[0.75,0,0],[1,0.25,0],[1,0.5,0],[1,0.75,0],[0.75,1,0],[0.5,1,0],[0.25,1,0],[0,0.75,0],[0,0.5,0],[0,0.25,0]];shape=mxgraph.bpmn.task;whiteSpace=wrap;rectStyle=rounded;size=10;html=1;container=1;expand=0;collapsible=0;taskMarker=abstract;" vertex="1" parent="ofezPAW-ld1FnH1hNWo3-1">
          <mxGeometry x="375" y="745" width="120" height="80" as="geometry" />
        </mxCell>
        <mxCell id="ofezPAW-ld1FnH1hNWo3-16" style="edgeStyle=orthogonalEdgeStyle;rounded=0;orthogonalLoop=1;jettySize=auto;html=1;" edge="1" parent="ofezPAW-ld1FnH1hNWo3-1" source="ofezPAW-ld1FnH1hNWo3-12" target="ofezPAW-ld1FnH1hNWo3-15">
          <mxGeometry relative="1" as="geometry" />
        </mxCell>
        <mxCell id="ofezPAW-ld1FnH1hNWo3-17" value="&lt;meta charset=&quot;utf-8&quot;&gt;Insert URLs into .BIB" style="points=[[0.25,0,0],[0.5,0,0],[0.75,0,0],[1,0.25,0],[1,0.5,0],[1,0.75,0],[0.75,1,0],[0.5,1,0],[0.25,1,0],[0,0.75,0],[0,0.5,0],[0,0.25,0]];shape=mxgraph.bpmn.task;whiteSpace=wrap;rectStyle=rounded;size=10;html=1;container=1;expand=0;collapsible=0;taskMarker=abstract;dashed=1;" vertex="1" parent="ofezPAW-ld1FnH1hNWo3-1">
          <mxGeometry x="375" y="854" width="120" height="80" as="geometry" />
        </mxCell>
        <mxCell id="ofezPAW-ld1FnH1hNWo3-18" style="edgeStyle=orthogonalEdgeStyle;rounded=0;orthogonalLoop=1;jettySize=auto;html=1;" edge="1" parent="ofezPAW-ld1FnH1hNWo3-1" source="ofezPAW-ld1FnH1hNWo3-15" target="ofezPAW-ld1FnH1hNWo3-17">
          <mxGeometry relative="1" as="geometry" />
        </mxCell>
        <mxCell id="ofezPAW-ld1FnH1hNWo3-19" value="" style="points=[[0.145,0.145,0],[0.5,0,0],[0.855,0.145,0],[1,0.5,0],[0.855,0.855,0],[0.5,1,0],[0.145,0.855,0],[0,0.5,0]];shape=mxgraph.bpmn.event;html=1;verticalLabelPosition=bottom;labelBackgroundColor=#ffffff;verticalAlign=top;align=center;perimeter=ellipsePerimeter;outlineConnect=0;aspect=fixed;outline=end;symbol=terminate2;" vertex="1" parent="ofezPAW-ld1FnH1hNWo3-1">
          <mxGeometry x="410" y="965" width="50" height="50" as="geometry" />
        </mxCell>
        <mxCell id="ofezPAW-ld1FnH1hNWo3-20" style="edgeStyle=orthogonalEdgeStyle;rounded=0;orthogonalLoop=1;jettySize=auto;html=1;" edge="1" parent="ofezPAW-ld1FnH1hNWo3-1" source="ofezPAW-ld1FnH1hNWo3-17" target="ofezPAW-ld1FnH1hNWo3-19">
          <mxGeometry relative="1" as="geometry" />
        </mxCell>
        <mxCell id="ofezPAW-ld1FnH1hNWo3-21" value="Optional step" style="points=[[0.25,0,0],[0.5,0,0],[0.75,0,0],[1,0.25,0],[1,0.5,0],[1,0.75,0],[0.75,1,0],[0.5,1,0],[0.25,1,0],[0,0.75,0],[0,0.5,0],[0,0.25,0]];shape=mxgraph.bpmn.task;whiteSpace=wrap;rectStyle=rounded;size=10;html=1;container=1;expand=0;collapsible=0;taskMarker=abstract;dashed=1;" vertex="1" parent="ofezPAW-ld1FnH1hNWo3-1">
          <mxGeometry x="200" y="170" width="120" height="40" as="geometry" />
        </mxCell>
        <mxCell id="ofezPAW-ld1FnH1hNWo3-22" value="Mandatory step" style="points=[[0.25,0,0],[0.5,0,0],[0.75,0,0],[1,0.25,0],[1,0.5,0],[1,0.75,0],[0.75,1,0],[0.5,1,0],[0.25,1,0],[0,0.75,0],[0,0.5,0],[0,0.25,0]];shape=mxgraph.bpmn.task;whiteSpace=wrap;rectStyle=rounded;size=10;html=1;container=1;expand=0;collapsible=0;taskMarker=abstract;" vertex="1" parent="ofezPAW-ld1FnH1hNWo3-1">
          <mxGeometry x="200" y="220" width="120" height="40" as="geometry" />
        </mxCell>
      </root>
    </mxGraphModel>
  </diagram>
</mxfile>
